<?xml version="1.0" encoding="utf-8"?>
<!-- Generator: Adobe Illustrator 16.0.4, SVG Export Plug-In . SVG Version: 6.00 Build 0)  -->
<!DOCTYPE svg PUBLIC "-//W3C//DTD SVG 1.1//EN" "http://www.w3.org/Graphics/SVG/1.1/DTD/svg11.dtd">
<svg version="1.1" id="Layer_1" xmlns="http://www.w3.org/2000/svg" xmlns:xlink="http://www.w3.org/1999/xlink" x="0px" y="0px"
	 width="40px" height="40px" viewBox="0 0 40 40" enable-background="new 0 0 40 40" xml:space="preserve">
<g>
	<circle fill="#EAE2BC" cx="20" cy="20" r="19.5"/>
	<path fill="#50413B" d="M31.49,24.554c-0.73,0-21.116,0-21.116,0H9.037c-0.42,0-0.571,0.409-0.571,0.702
		c0,6.425,5.226,11.649,11.649,11.649c0.035,0,0.071-0.002,0.106-0.003c0.035,0.001,0.07,0.003,0.107,0.003
		c4.142,0,8.032-1.992,10.47-6.177c2.965-1.34,3.98-2.641,4.145-3.737C35.127,25.745,34.414,24.554,31.49,24.554z M31.287,29.253
		c0.609-1.341,0.689-3.562,0.689-3.562c1.504,0,1.998,0.582,1.855,1.341C33.67,27.898,32.668,28.494,31.287,29.253z"/>
	<path fill="#5F493B" d="M23.514,25.743c0,5.901-3.25,10.117-3.25,10.117c0.001,0,0.003,0,0.004,0c3.729,0,7.014-1.926,8.918-4.834
		c0.012-0.032,0.027-0.062,0.045-0.092c0.951-1.481,1.516-3.158,1.652-4.894c0.002-0.04,0.006-0.08,0.008-0.119
		c0.004-0.06,0.004-0.119,0.008-0.179C30.898,25.743,25.336,25.743,23.514,25.743z"/>
	<path fill="#C84F30" d="M22.17,23.771c0.793-0.955,1.723-2.03,2.713-3.405c3.75-5.208,2.41-13.66-7.367-15.133
		c1.205,2.277,3.616,6.161-4.395,12.723c-1.996,1.846-2.767,3.874-2.69,5.816H22.17z"/>
	<path fill="#AD422C" d="M29.539,23.771c0.205-2.107-0.258-4.616-1.84-7.542c0.139,3.451-1.322,5.683-2.828,7.542H29.539z"/>
	<path fill="#6B5746" d="M23.514,25.743h-2.197H10.556H9.631c0.279,5.624,4.941,10.115,10.633,10.117
		C20.266,35.858,23.514,31.643,23.514,25.743z"/>
</g>
</svg>
