<?xml version="1.0" standalone="no"?> <!DOCTYPE svg PUBLIC "-//W3C//DTD SVG 1.0//EN" "http://www.w3.org/TR/2001/REC-SVG-20010904/DTD/svg10.dtd" > <svg xmlns="http://www.w3.org/2000/svg" width="100%" height="100%">
<defs >
<font id="skolarot-italic" horiz-adv-x="849" ><font-face
    font-family="Skolar OT"
    units-per-em="2048"
    panose-1="2 0 5 3 0 0 0 9 0 4"
    ascent="1875"
    descent="-556"
    alphabetic="0" />
<missing-glyph horiz-adv-x="1278" d="M52 -4L222 1374Q275 1373 368 1372T539 1369T685 1368Q868 1368 1224 1376L1054 -4Q718 4 554 4Q384 4 52 -4ZM570 147Q704 147 896 154L958 663Q854 596 788 596Q724 596 623 638T474 680Q433 680 307 617L251 154Q433
147 570 147ZM380 1217L320 726Q449 821 509 821Q562 821 620 798T733 752T833 729Q875 729 971 771L1025 1217Q989 1218 924 1219T805 1222T704 1223Q701 1223 380 1217Z" />
<glyph unicode=" " glyph-name="space" horiz-adv-x="428" />
<glyph unicode="!" glyph-name="exclam" horiz-adv-x="614" d="M118 80Q118 128 157 163T248 199Q292 199 322 172T353 105Q353 55 313 16T221 -23Q177 -23 148 7T118 80ZM328 379Q322 350 272 350Q242 350 221 362Q232 1042 290 1316Q297 1350 387 1350Q439 1350
484 1331Q475 1062 328 379Z" />
<glyph unicode="&quot;" glyph-name="quotedbl" horiz-adv-x="751" d="M161 1087Q155 1217 155 1301Q155 1442 167 1551Q170 1579 205 1592T288 1605Q327 1605 359 1597Q312 1305 258 1112Q249 1080 199 1080Q176 1080 161 1087ZM494 1087Q488 1217 488 1301Q488
1442 500 1551Q503 1579 538 1592T621 1605Q660 1605 692 1597Q645 1305 591 1112Q582 1080 532 1080Q509 1080 494 1087Z" />
<glyph unicode="#" glyph-name="numbersign" horiz-adv-x="1252" d="M1172 628H954L866 336H1067Q1072 271 1051 203H826L761 -16Q692 -16 634 7L692 203H402L337 -16Q268 -16 210 7L268 203H62Q59 268 78 336H308L395 628H183Q180 696 199 761H435L501 981Q572
981 629 958L570 761H859L925 981Q996 981 1053 958L994 761H1188Q1191 690 1172 628ZM530 628L442 336H732L819 628H530Z" />
<glyph unicode="$" glyph-name="dollar" horiz-adv-x="912" d="M256 -184L291 -16Q207 -8 135 9T33 46Q41 110 65 191T113 320Q156 328 195 311Q188 235 188 136Q240 111 317 105L397 480Q339 508 303 528T225 580T164 650T144 733Q144 795 168 847T232 935T321
994T420 1029T516 1040L551 1203Q576 1208 594 1208Q627 1208 654 1196L620 1036Q735 1027 849 991Q842 932 820 858T775 736Q737 730 695 742Q700 802 700 843Q700 861 698 899Q670 912 595 919L530 610Q582 586 612 571T685 528T751 476T792 416T810 341Q810
199 692 91T395 -21L359 -193Q341 -196 323 -196Q286 -196 256 -184ZM640 285Q640 329 602 364T492 435L422 102Q513 108 584 142Q599 155 619 199T640 285ZM304 796Q304 755 337 723T435 656L491 921Q413 917 359 901Q342 892 323 863T304 796Z" />
<glyph unicode="%" glyph-name="percent" horiz-adv-x="1922" d="M384 15L1515 1496Q1582 1475 1612 1421L479 -64Q398 -35 384 15ZM442 595Q499 595 547 624Q581 644 625 748T670 986Q670 1108 625 1182T482 1257Q425 1257 377 1228Q343 1208 299 1104T254 866Q254
744 299 670T442 595ZM395 460Q250 460 174 558T97 819Q97 895 116 976T174 1131T264 1263T385 1357T529 1392Q674 1392 750 1294T827 1033Q827 957 808 876T750 721T660 589T539 495T395 460ZM1440 95Q1497 95 1545 124Q1579 144 1623 248T1668 486Q1668 608 1623
682T1480 757Q1423 757 1375 728Q1341 708 1297 604T1252 366Q1252 244 1297 170T1440 95ZM1393 -40Q1248 -40 1172 58T1095 319Q1095 395 1114 476T1172 631T1262 763T1383 857T1527 892Q1672 892 1748 794T1825 533Q1825 457 1806 376T1748 221T1658 89T1537
-5T1393 -40Z" />
<glyph unicode="&amp;" glyph-name="ampersand" horiz-adv-x="1499" d="M930 617Q846 577 834 480Q809 470 780 476T749 504Q743 584 768 648T848 737Q949 783 1093 830T1310 911Q1394 949 1405 1050Q1430 1055 1457 1046T1488 1014Q1497 948 1472 882T1392 791Q1346
770 1278 743Q1280 715 1280 699Q1280 603 1245 501T1141 303T978 133T759 12T496 -33Q328 -33 217 59T105 289Q105 433 185 543T443 754Q367 891 367 990Q367 1091 427 1189T584 1348T780 1409Q923 1409 1004 1317T1088 1095Q1081 1081 1058 1065T1011 1038T966
1028T941 1047Q923 1136 864 1192T722 1249Q651 1249 596 1220Q547 1156 547 1060Q547 930 622 832Q641 809 632 759T594 696Q562 682 550 677T498 651T437 614T382 569T331 511T299 442T285 359Q285 249 360 188T564 126Q746 126 945 252Q1108 422 1108 621Q1108
649 1103 684Q991 646 930 617Z" />
<glyph unicode="&apos;" glyph-name="quotesingle" horiz-adv-x="418" d="M161 1087Q155 1217 155 1301Q155 1442 167 1551Q170 1579 205 1592T288 1605Q327 1605 359 1597Q312 1305 258 1112Q249 1080 199 1080Q176 1080 161 1087Z" />
<glyph unicode="(" glyph-name="parenleft" horiz-adv-x="715" d="M164 485Q164 820 303 1142T692 1759Q706 1776 740 1750T779 1703Q553 1368 458 1063T362 458Q362 71 524 -318Q533 -346 502 -367T434 -395Q164 46 164 485Z" />
<glyph unicode=")" glyph-name="parenright" horiz-adv-x="715" d="M548 882Q548 235 34 -374Q6 -404 -27 -384T-62 -327Q354 289 354 925Q354 1308 190 1692Q176 1719 211 1739T281 1766Q548 1328 548 882Z" />
<glyph unicode="*" glyph-name="asterisk" horiz-adv-x="775" d="M91 1135Q178 1123 351 1016Q330 1062 216 1283Q237 1301 275 1314T342 1328Q369 1328 375 1314Q402 1235 402 1102Q402 1052 401 1029Q419 1054 566 1279Q600 1268 637 1231T675 1169Q675 1162
672 1158Q605 1080 438 992Q458 990 737 975Q744 940 730 885T685 823Q643 827 591 848T509 888T424 942Q442 903 560 675Q539 657 501 644T434 630Q407 630 401 644Q372 725 372 857Q372 883 374 929Q350 896 323 854T261 757T210 679Q176 690 138 727T100 789Q100
796 104 800Q170 877 337 966Q315 968 39 983Q32 1018 46 1073T91 1135Z" />
<glyph unicode="+" glyph-name="plus" horiz-adv-x="1070" d="M653 914L610 560H965Q973 502 948 425H593L550 70Q488 55 415 70L458 425H104Q93 502 121 560H475L518 914Q584 929 653 914Z" />
<glyph unicode="," glyph-name="comma" horiz-adv-x="614" d="M380 248Q412 184 412 105Q412 13 358 -93T190 -281Q171 -295 150 -278T122 -240Q247 -101 247 23Q247 50 234 98T221 161Q221 188 274 215T380 248Z" />
<glyph unicode="-" glyph-name="hyphen" horiz-adv-x="778" d="M640 532Q446 512 145 470Q133 468 126 482T117 518T117 564T125 605Q419 646 620 667Q644 670 648 618T640 532Z" />
<glyph unicode="." glyph-name="period" horiz-adv-x="614" d="M177 83Q177 139 220 178T322 217Q372 217 404 188T437 112Q437 56 393 14T291 -29Q241 -29 209 3T177 83Z" />
<glyph unicode="/" glyph-name="slash" horiz-adv-x="831" d="M696 1422Q712 1450 743 1447T805 1425T850 1386L116 -186Q100 -214 69 -211T7 -189T-38 -150L696 1422Z" />
<glyph unicode="0" glyph-name="zero" horiz-adv-x="1206" d="M73 411Q73 527 125 638T260 830T451 960T667 1009Q880 1009 1006 881T1132 555Q1132 399 1046 260T823 40T538 -41Q325 -41 199 87T73 411ZM555 103Q723 103 849 232T975 534Q975 675 884 770T650
865Q539 865 442 806T288 646T231 432Q231 291 322 197T555 103Z" />
<glyph unicode="1" glyph-name="one" horiz-adv-x="772" d="M327 240L356 478L393 795Q254 795 151 783Q132 820 138 860Q220 899 350 941T581 996Q563 864 551 767L493 281Q484 211 481 131Q591 125 677 90Q668 22 651 -4Q543 4 370 4Q327 4 225 0T64 -4Q53 22
61 90Q185 101 305 131Q321 191 327 240Z" />
<glyph unicode="2" glyph-name="two" horiz-adv-x="969" d="M831 720Q831 653 805 589T736 473T629 367T501 273T355 184L231 134Q622 134 824 150Q838 151 844 133T847 90T832 38T803 -4Q739 -4 594 0T398 4Q264 4 54 -4Q39 34 39 84Q39 97 41 119Q137 172 215
220T380 329T525 446T622 562T661 676Q661 756 604 805T455 855Q305 855 179 790Q159 780 140 806T120 868Q186 919 295 960T512 1002Q658 1002 744 920T831 720Z" />
<glyph unicode="3" glyph-name="three" horiz-adv-x="967" d="M781 115Q781 28 731 -56T585 -213T334 -340T-16 -416Q-33 -418 -41 -401T-48 -363T-41 -328Q131 -299 277 -242T517 -103T611 67Q611 154 535 210T349 266Q312 266 284 261Q273 259 269 287T273 347T305
386Q455 435 544 514T634 690Q634 762 576 808T428 855Q290 855 180 803Q159 793 140 817T121 876Q187 925 290 963T503 1002Q636 1002 720 921T804 731Q804 635 746 551T589 416L481 380Q627 369 704 292T781 115Z" />
<glyph unicode="4" glyph-name="four" horiz-adv-x="1096" d="M62 176Q229 360 711 943Q721 955 752 962T816 970T872 966T896 951L801 173Q954 169 1022 157Q1043 151 1040 108T1017 37Q869 41 784 41L737 -339Q734 -366 677 -385T568 -392L622 41Q530 41 350
39T86 37Q63 37 52 94T62 176ZM639 173L719 813L616 646Q387 367 201 165Q445 171 639 173Z" />
<glyph unicode="5" glyph-name="five" horiz-adv-x="928" d="M775 189Q775 111 745 35T651 -114T498 -246T281 -351T4 -416Q-13 -418 -21 -401T-28 -363T-21 -328Q144 -294 284 -226T515 -61T605 141Q605 254 534 311T364 369Q239 369 156 344Q151 342 146 346T141
354L213 941Q216 958 233 958H330Q592 958 844 967Q849 935 847 899T830 834T791 807Q604 827 333 831L287 487Q363 509 469 509Q593 509 684 421T775 189Z" />
<glyph unicode="6" glyph-name="six" horiz-adv-x="1085" d="M976 1232Q669 1133 501 979T306 629L391 709Q521 797 666 797Q808 797 908 699T1009 480Q1009 363 961 262T837 96T675 -4T507 -41Q420 -41 352 -11T243 68T175 181T138 307T128 434Q128 496 137 559T170
699T233 846T334 989T480 1122T679 1233T936 1315Q958 1320 970 1290T976 1232ZM598 647Q458 647 298 536V494Q298 413 311 347T353 225T433 140T553 109Q635 109 722 146Q765 181 802 258T839 411Q839 512 768 579T598 647Z" />
<glyph unicode="7" glyph-name="seven" horiz-adv-x="974" d="M770 827Q697 831 604 831Q362 831 105 797Q72 793 54 810T34 854T35 908T47 953Q213 973 532 973Q771 973 903 961Q930 959 933 913T916 837Q684 500 549 240T277 -369Q261 -403 224 -401T149 -380T95
-340Q157 -190 235 -38T409 272T581 545T770 827Z" />
<glyph unicode="8" glyph-name="eight" horiz-adv-x="1112" d="M492 -41Q322 -41 222 29T122 238Q122 463 359 603L479 656Q422 690 383 719T304 785T246 865T226 954Q226 1021 256 1080T333 1181T439 1252T555 1296T663 1311Q815 1311 909 1230T1004 1037Q1004
955 963 895T826 761L728 708Q787 674 828 645T909 577T970 493T991 396Q991 281 926 181T746 20T492 -41ZM819 336Q819 376 800 413T739 485T661 545T562 606Q443 545 366 461T288 280Q288 104 526 104Q651 104 731 148Q769 183 794 236T819 336ZM396 1000Q396
963 415 930T475 864T551 809T648 753Q847 888 847 991Q847 1060 783 1115T621 1171Q537 1171 463 1134Q450 1125 437 1111T410 1066T396 1000Z" />
<glyph unicode="9" glyph-name="nine" horiz-adv-x="1075" d="M100 -321Q406 -216 577 -56T781 309L700 232Q569 145 425 145Q331 145 251 196T126 325T82 487Q82 604 130 705T254 871T416 971T584 1008Q671 1008 739 978T848 899T916 786T953 660T963 533Q963
466 954 399T920 249T857 92T753 -60T605 -201T403 -318T141 -404Q118 -409 106 -379T100 -321ZM493 294Q634 294 791 404Q793 450 793 473Q793 554 780 620T738 742T658 827T538 858Q456 858 369 821Q326 786 289 709T252 556Q252 444 323 369T493 294Z" />
<glyph unicode=":" glyph-name="colon" horiz-adv-x="614" d="M135 91Q135 147 179 187T283 227Q333 227 367 196T401 119Q401 64 355 21T253 -23Q203 -23 169 10T135 91ZM218 755Q218 810 262 850T366 890Q416 890 450 860T484 783Q484 727 438 684T336 641Q286
641 252 674T218 755Z" />
<glyph unicode=";" glyph-name="semicolon" horiz-adv-x="614" d="M224 755Q224 810 268 850T372 890Q422 890 456 860T490 783Q490 727 444 684T342 641Q292 641 258 674T224 755ZM346 248Q378 184 378 105Q378 13 324 -93T156 -281Q137 -295 116 -278T88 -240Q213
-101 213 23Q213 50 200 98T187 161Q187 188 240 215T346 248Z" />
<glyph unicode="&lt;" glyph-name="less" horiz-adv-x="1070" d="M89 565L1003 972Q1054 915 1053 854L244 494L957 135Q944 47 886 16L72 423Q60 494 89 565Z" />
<glyph unicode="=" glyph-name="equal" horiz-adv-x="1070" d="M968 610H124Q116 664 141 745H985Q993 691 968 610ZM928 283H84Q76 337 101 418H945Q953 364 928 283Z" />
<glyph unicode="&gt;" glyph-name="greater" horiz-adv-x="1070" d="M179 972L993 565Q997 546 997 522Q997 472 976 423L62 16Q12 66 13 134L822 494L109 853Q117 935 179 972Z" />
<glyph unicode="?" glyph-name="question" horiz-adv-x="854" d="M176 78Q176 127 215 163T306 199Q351 199 381 172T411 104Q411 55 371 16T279 -23Q236 -23 206 6T176 78ZM226 1167Q199 1153 180 1193T172 1263Q225 1314 303 1344T465 1375Q629 1375 723 1282T818
1039Q818 959 788 893T708 780T607 696T500 619T418 545Q410 528 389 386Q387 370 353 358T291 346Q270 346 258 352Q251 376 251 440Q251 505 256 543Q261 582 295 621T373 689T478 765T581 854Q616 905 616 994T563 1150T423 1217Q329 1217 226 1167Z" />
<glyph unicode="@" glyph-name="at" horiz-adv-x="1806" d="M1118 -25Q1097 -25 1080 -5T1053 48T1038 113T1029 180Q931 84 839 27T686 -31Q633 -31 593 28T532 181T511 383Q511 475 532 564T595 732T693 869T824 963T983 997Q1061 997 1147 976T1282 924Q1279
908 1276 877T1271 835Q1210 371 1185 129Q1260 129 1352 165T1495 248Q1570 381 1570 600Q1570 719 1535 823T1433 1009T1259 1137T1015 1184Q778 1184 561 1052Q408 937 325 754T241 378Q241 255 276 147T379 -47T558 -183T809 -233Q917 -233 992 -221T1184 -178Q1214
-211 1214 -266Q1214 -270 1214 -276T1213 -286Q1116 -330 1010 -354T753 -378Q606 -378 478 -322T263 -172T126 47T76 309Q76 521 156 711T372 1036T691 1250T1076 1329Q1204 1329 1312 1291T1496 1186T1625 1033T1704 847T1730 644Q1730 541 1708 445T1636 263T1517
114T1344 13T1118 -25ZM745 126Q882 172 1034 288L1083 674L1101 826Q1016 863 936 863Q886 863 838 845Q778 793 729 674T679 452Q679 218 745 126Z" />
<glyph unicode="A" glyph-name="A" horiz-adv-x="1378" d="M-38 96Q43 103 132 131L676 1356Q745 1378 853 1382Q996 761 1164 130Q1262 119 1324 96Q1321 39 1298 -4Q1219 4 1085 4Q1030 4 944 0T805 -4Q787 45 797 96Q884 105 975 133L890 454Q776 460 630 460Q530
460 426 457L280 134Q386 122 441 96Q437 39 414 -4Q335 4 197 4Q157 4 86 0T-30 -4Q-46 42 -38 96ZM677 572Q743 572 861 570Q790 851 747 1054L753 1218L476 569Q575 572 677 572Z" />
<glyph unicode="B" glyph-name="B" horiz-adv-x="1196" d="M659 1384Q852 1384 950 1308T1048 1094Q1048 899 830 763Q950 730 1010 651T1071 459Q1071 378 1034 295T935 145T783 36T596 -6Q561 -6 427 -1T226 4Q180 4 97 0T-31 -4Q-42 46 -36 96Q52 104 146 135Q164
195 173 260L293 1223Q205 1213 108 1195Q79 1231 79 1305Q219 1341 387 1362T659 1384ZM341 130Q400 127 547 127Q674 127 783 171Q831 211 861 279T891 409Q891 505 817 582T619 659Q512 659 400 650L357 305Q345 207 341 130ZM415 776Q534 784 657 784Q734 784
801 872T868 1049Q868 1146 798 1199T622 1253Q561 1253 474 1250L415 776Z" />
<glyph unicode="C" glyph-name="C" horiz-adv-x="1205" d="M1150 1348Q1126 1178 1070 1025Q1018 1010 981 1028Q982 1055 982 1108Q982 1179 978 1235Q897 1249 775 1249Q616 1249 506 1193Q490 1180 467 1154T407 1075T342 960T292 808T270 624Q270 560 280
497T319 364T390 243T505 157T668 123Q818 123 1016 217Q1053 190 1053 139Q950 59 829 11T602 -37Q503 -37 418 -4T274 87T173 218T110 375T90 542Q90 708 144 865T291 1143T518 1336T805 1409Q999 1409 1150 1348Z" />
<glyph unicode="D" glyph-name="D" horiz-adv-x="1327" d="M111 1195Q82 1231 82 1305Q222 1341 390 1362T662 1384Q943 1384 1090 1240T1237 829Q1237 708 1211 591T1129 365T995 174T803 43T558 -6Q522 -6 405 -1T229 4Q183 4 100 0T-28 -4Q-39 46 -33 96Q55
104 149 135Q167 195 176 260L296 1223Q208 1213 111 1195ZM344 130Q496 126 527 126Q600 126 658 135T745 153T823 183Q936 276 996 428T1057 762Q1057 861 1033 946T960 1102T825 1212T625 1253Q574 1253 477 1248L360 305Q348 207 344 130Z" />
<glyph unicode="E" glyph-name="E" horiz-adv-x="1198" d="M321 1239Q242 1243 159 1245Q143 1308 155 1368H641Q887 1368 1137 1376Q1130 1231 1081 1051Q1037 1038 995 1051Q995 1156 981 1233Q829 1239 517 1239Q503 1171 476 954L453 772Q676 788 836 791Q842
772 842 754Q842 713 824 678T789 642Q635 651 439 653L396 305Q384 201 380 136Q713 136 863 142Q925 228 969 348Q1018 355 1057 333Q1046 151 989 -4Q739 4 479 4H264Q218 4 136 0T8 -4Q-3 46 3 96Q91 104 185 135Q203 195 212 260L298 954Q321 1152 321 1239Z"
/>
<glyph unicode="F" glyph-name="F" horiz-adv-x="1178" d="M321 1239Q242 1243 159 1245Q143 1308 155 1368H641Q887 1368 1137 1376Q1130 1226 1081 1037Q1037 1024 995 1037Q995 1149 981 1233Q829 1239 517 1239Q503 1171 476 954L453 772Q676 788 836 791Q842
772 842 754Q842 713 824 678T789 642Q635 651 439 653L396 305Q384 202 380 135Q516 123 582 96Q580 38 555 -4Q439 4 271 4Q227 4 140 0T8 -4Q-3 47 3 96Q91 104 185 135Q203 195 212 260L298 954Q321 1152 321 1239Z" />
<glyph unicode="G" glyph-name="G" horiz-adv-x="1310" d="M1215 1348Q1191 1178 1135 1025Q1083 1010 1046 1028Q1048 1082 1048 1110Q1048 1172 1042 1235Q936 1249 775 1249Q616 1249 506 1193Q490 1180 467 1154T407 1075T342 960T292 808T270 624Q270 560
280 497T319 364T390 243T505 157T668 123Q807 123 912 138Q939 346 939 446Q847 474 765 484Q761 532 784 584Q829 584 909 580T1039 576H1136Q1124 439 1072 80Q961 27 834 -5T602 -37Q503 -37 418 -4T274 87T173 218T110 375T90 542Q90 708 144 865T291 1143T518
1336T805 1409Q1035 1409 1215 1348Z" />
<glyph unicode="H" glyph-name="H" horiz-adv-x="1569" d="M437 1368Q602 1368 681 1376Q698 1325 694 1276Q629 1249 517 1238Q501 1166 476 954L453 769Q605 774 740 774Q902 774 1137 769L1160 954Q1184 1147 1184 1238Q1092 1266 1010 1276Q1008 1332 1029
1376Q1074 1376 1162 1372T1299 1368Q1464 1368 1543 1376Q1560 1325 1556 1276Q1491 1249 1379 1238Q1363 1166 1338 954L1258 305Q1246 202 1242 135Q1364 122 1408 96Q1406 38 1381 -4Q1279 4 1133 4Q1089 4 1002 0T870 -4Q859 47 865 96Q953 104 1047 135Q1065
195 1074 260L1121 637Q917 647 698 647Q552 647 437 643L396 305Q384 202 380 135Q502 122 546 96Q544 38 519 -4Q417 4 271 4Q227 4 140 0T8 -4Q-3 47 3 96Q91 104 185 135Q203 195 212 260L298 954Q322 1148 322 1238Q230 1266 148 1276Q146 1332 167 1376Q212
1376 300 1372T437 1368Z" />
<glyph unicode="I" glyph-name="I" horiz-adv-x="707" d="M380 135Q502 122 546 96Q544 38 519 -4Q417 4 271 4Q227 4 140 0T8 -4Q-3 47 3 96Q91 104 185 135Q203 195 212 260L298 954Q322 1148 322 1238Q230 1266 148 1276Q146 1332 167 1376Q212 1376 300 1372T437
1368Q602 1368 681 1376Q698 1325 694 1276Q629 1249 517 1238Q501 1166 476 954L396 305Q384 202 380 135Z" />
<glyph unicode="J" glyph-name="J" horiz-adv-x="644" d="M394 1368Q559 1368 638 1376Q655 1324 651 1276Q586 1249 474 1238Q461 1182 433 954L320 41Q307 -57 275 -133T201 -259T101 -345T-14 -402T-142 -440Q-174 -408 -168 -356Q-3 -303 80 -207Q122 -152
137 0L255 954Q279 1148 279 1238Q187 1266 105 1276Q105 1328 124 1376Q170 1376 258 1372T394 1368Z" />
<glyph unicode="K" glyph-name="K" horiz-adv-x="1435" d="M457 1368Q622 1368 701 1376Q718 1325 714 1276Q649 1249 537 1238Q524 1182 496 954L462 682Q586 742 693 803Q882 1051 1050 1246Q964 1267 894 1276Q891 1331 913 1376Q976 1376 1064 1372T1171 1368Q1303
1368 1367 1376Q1383 1327 1379 1276Q1322 1249 1220 1238H1215Q989 975 789 718Q805 684 834 619T882 513T931 413T984 316T1039 235T1100 167T1165 126T1238 109Q1293 109 1334 120Q1367 89 1364 31Q1328 9 1253 -12T1126 -33Q1090 -33 1056 -21T993 10T935 62T884
125T837 202T795 284T756 373T721 460T688 547T658 627L444 534L416 305Q404 202 400 135Q522 122 566 96Q564 38 539 -4Q437 4 291 4Q247 4 160 0T28 -4Q17 47 23 96Q111 104 205 135Q223 195 232 260L318 954Q342 1148 342 1238Q250 1266 168 1276Q166 1332 187
1376Q232 1376 320 1372T457 1368Z" />
<glyph unicode="L" glyph-name="L" horiz-adv-x="1097" d="M344 136Q677 136 827 142Q888 234 933 362Q983 374 1021 350Q1012 163 953 -4Q703 4 443 4H228Q182 4 100 0T-28 -4Q-39 46 -33 96Q55 104 149 135Q167 195 176 260L262 954Q286 1148 286 1238Q194 1266
112 1276Q110 1332 131 1376Q177 1376 264 1372T401 1368Q566 1368 645 1376Q662 1325 658 1276Q593 1249 481 1238Q468 1182 440 954L360 305Q348 201 344 136Z" />
<glyph unicode="M" glyph-name="M" horiz-adv-x="1860" d="M428 1368Q542 1368 596 1364Q729 951 867 360L875 193Q1112 757 1403 1364Q1468 1368 1593 1368Q1755 1368 1834 1376Q1851 1325 1847 1276Q1782 1249 1670 1238Q1657 1182 1629 954L1549 305Q1537 202
1533 135Q1655 122 1699 96Q1697 38 1672 -4Q1570 4 1424 4Q1380 4 1293 0T1161 -4Q1150 47 1156 96Q1244 104 1338 135Q1359 204 1359 261L1451 954L1490 1247Q1427 1108 1324 882T1165 531T1043 260T938 16Q846 -7 766 -10Q665 431 503 1061L475 1256L437 954L357
305Q345 202 341 135Q380 131 431 119T506 96Q504 38 479 -4Q389 4 262 4Q219 4 136 0T8 -4Q-3 47 3 96Q91 104 185 135Q203 195 212 260L298 954Q322 1148 322 1238Q230 1266 148 1276Q146 1332 167 1376Q214 1376 299 1372T428 1368Z" />
<glyph unicode="N" glyph-name="N" horiz-adv-x="1516" d="M1289 1368Q1439 1368 1510 1376Q1527 1325 1523 1276Q1458 1249 1346 1238Q1333 1182 1305 954L1190 16Q1112 -8 1018 -10Q776 566 517 1081L475 1256L357 305Q345 202 341 135Q380 131 431 119T506
96Q504 38 479 -4Q389 4 262 4Q219 4 136 0T8 -4Q-3 47 3 96Q91 104 185 135Q203 195 212 260L298 954Q322 1148 322 1238Q230 1266 148 1276Q146 1332 167 1376Q214 1376 299 1372T428 1368Q534 1368 574 1365Q796 927 1026 426L1074 202L1166 954Q1187 1148 1187
1238Q1102 1265 1016 1276Q1014 1332 1035 1376Q1082 1376 1164 1372T1289 1368Z" />
<glyph unicode="O" glyph-name="O" horiz-adv-x="1393" d="M270 632Q270 539 291 452T356 290T474 168T647 122Q777 122 889 179Q914 198 949 244T1025 361T1095 534T1123 739Q1123 832 1102 919T1037 1081T919 1203T746 1249Q616 1249 504 1192Q479 1173 444
1127T368 1010T298 837T270 632ZM1303 821Q1303 696 1269 570T1170 336T1023 143T834 11T618 -38Q489 -38 386 12T219 147T123 335T90 550Q90 654 114 760T183 960T291 1137T429 1280T593 1374T775 1409Q879 1409 967 1376T1116 1286T1220 1154T1283 994T1303 821Z"
/>
<glyph unicode="P" glyph-name="P" horiz-adv-x="1133" d="M344 135Q480 123 546 96Q544 38 519 -4Q403 4 235 4Q191 4 104 0T-28 -4Q-39 47 -33 96Q55 104 149 135Q167 195 176 260L295 1224Q217 1216 101 1195Q65 1237 72 1305Q212 1341 380 1362T652 1384Q860
1384 980 1294T1101 1019Q1101 936 1062 847T956 684T794 564T595 516Q486 516 388 535L360 305Q348 202 344 135ZM615 1253Q548 1253 476 1249L403 656Q473 648 544 648Q668 648 783 692Q846 743 880 825T915 973Q915 1094 837 1173T615 1253Z" />
<glyph unicode="Q" glyph-name="Q" horiz-adv-x="1394" d="M1303 822Q1303 650 1240 483T1065 188T813 2L671 -15Q813 -285 989 -285Q1068 -285 1163 -242Q1200 -262 1203 -301Q1086 -433 943 -433Q798 -433 692 -328T530 -31Q443 -18 370 21T246 116T160 243T107
391T90 550Q90 654 114 760T183 960T291 1137T429 1280T593 1374T775 1409Q904 1409 1007 1359T1174 1224T1270 1037T1303 822ZM270 632Q270 539 291 452T356 290T474 168T647 122Q777 122 889 179Q914 198 949 244T1025 361T1095 534T1123 739Q1123 832 1102 919T1037
1081T919 1203T746 1249Q616 1249 504 1192Q479 1173 444 1127T368 1010T298 837T270 632Z" />
<glyph unicode="R" glyph-name="R" horiz-adv-x="1267" d="M344 135Q466 122 510 96Q508 38 483 -4Q381 4 235 4Q191 4 104 0T-28 -4Q-39 47 -33 96Q55 104 149 135Q167 195 176 260L296 1223Q208 1213 111 1195Q74 1243 82 1305Q222 1341 390 1362T662 1384Q871
1384 990 1296T1110 1029Q1110 901 1024 779T802 597Q862 344 943 229Q982 174 1025 144T1139 113Q1169 113 1211 121Q1232 96 1232 62Q1232 45 1228 29Q1186 6 1123 -13T1010 -33Q869 -33 784 131Q703 287 656 558Q630 555 605 555Q488 555 393 576L360 305Q348
202 344 135ZM625 1253Q574 1253 477 1248L408 696Q480 687 554 687Q708 687 806 732Q866 785 898 853T930 983Q930 1094 849 1173T625 1253Z" />
<glyph unicode="S" glyph-name="S" horiz-adv-x="1115" d="M240 161Q349 108 500 108Q616 108 704 153Q807 263 807 377Q807 416 791 450T752 507T688 557T615 597T530 637Q493 654 475 662T421 688T368 717T321 748T276 784T241 824T212 872T195 925T188 987Q188
1070 215 1140T287 1259T391 1342T516 1393T648 1409Q859 1409 1030 1339Q1019 1262 994 1171T944 1020Q896 1009 853 1030Q860 1086 860 1153Q860 1193 857 1235Q824 1246 755 1255T638 1264Q512 1264 438 1236Q407 1213 379 1170T350 1068Q350 1039 359 1013T379
966T416 925T459 891T513 859T570 831T633 802Q680 781 707 768T776 732T844 689T900 639T947 577T975 505T987 416Q987 332 947 250T837 105T665 2T449 -37Q339 -37 216 -8T55 53Q63 132 90 232T145 399Q194 410 241 389Q236 343 236 277Q236 213 240 161Z" />
<glyph unicode="T" glyph-name="T" horiz-adv-x="1294" d="M661 135Q796 122 844 96Q836 28 815 -4Q707 4 550 4Q503 4 411 0T269 -4Q262 17 262 61Q262 74 264 96Q361 104 466 135Q484 195 493 260L614 1239Q374 1237 253 1233Q228 1175 192 1022Q140 1015 104
1026Q104 1231 130 1376Q380 1368 626 1368H808Q1054 1368 1304 1376Q1298 1241 1244 1028Q1199 1014 1158 1024Q1158 1167 1146 1233Q1030 1237 792 1239L677 305Q665 202 661 135Z" />
<glyph unicode="U" glyph-name="U" horiz-adv-x="1499" d="M1250 1368Q1400 1368 1471 1376Q1488 1325 1484 1276Q1419 1249 1307 1238Q1294 1182 1266 954L1211 506Q1196 385 1156 289T1045 119T868 4T621 -37Q414 -37 305 80T196 412Q196 472 203 528L256 954Q280
1148 280 1238Q188 1266 106 1276Q104 1332 125 1376Q170 1376 258 1372T395 1368Q560 1368 639 1376Q656 1325 652 1276Q587 1249 475 1238Q462 1182 434 954L381 528Q375 481 375 440Q375 288 453 206T691 123Q762 123 836 142T954 191Q986 222 1024 320T1072
506L1127 954Q1148 1148 1148 1238Q1063 1265 977 1276Q975 1332 996 1376Q1043 1376 1125 1372T1250 1368Z" />
<glyph unicode="V" glyph-name="V" horiz-adv-x="1452" d="M617 1276Q558 1250 446 1239Q588 717 675 318V168Q922 760 1142 1239Q1048 1266 972 1276Q965 1325 991 1376Q1049 1376 1128 1372T1222 1368Q1358 1368 1422 1376Q1442 1322 1434 1276Q1384 1252 1289
1239L746 16Q670 -8 569 -10Q408 683 258 1238Q169 1266 86 1276Q84 1329 105 1376Q146 1376 223 1372T343 1368Q520 1368 604 1376Q623 1322 617 1276Z" />
<glyph unicode="W" glyph-name="W" horiz-adv-x="2042" d="M1014 1356Q1095 1382 1184 1382Q1299 735 1346 350L1340 187Q1477 610 1729 1238Q1636 1266 1556 1276Q1554 1335 1575 1376Q1633 1376 1713 1372T1812 1368Q1950 1368 2014 1376Q2029 1332 2026 1276Q1970
1249 1870 1238L1397 16Q1315 -8 1220 -10Q1143 590 1081 954L1076 1156Q864 599 675 16Q599 -8 494 -10Q370 710 256 1239Q162 1266 86 1276Q81 1327 105 1376Q146 1376 224 1372T348 1368Q530 1368 614 1376Q633 1324 627 1276Q562 1249 448 1238Q547 750 604
331L598 173Q788 762 1014 1356Z" />
<glyph unicode="X" glyph-name="X" horiz-adv-x="1337" d="M645 1276Q583 1250 490 1237L720 827L1038 1246Q972 1262 865 1276Q862 1329 884 1376Q947 1376 1035 1372T1142 1368Q1279 1368 1343 1376Q1365 1324 1355 1276Q1298 1249 1197 1238L787 707L1107 134Q1202
124 1258 96Q1256 44 1231 -4Q1150 4 1039 4Q985 4 896 0T756 -4Q735 46 748 96Q833 107 900 134L649 583L304 130Q416 125 484 96Q486 40 455 -4Q372 4 225 4Q176 4 98 0T-27 -4Q-43 48 -35 96Q51 104 146 134L583 700L283 1238Q181 1268 118 1276Q112 1329 137
1376Q178 1376 256 1372T380 1368Q548 1368 632 1376Q651 1330 645 1276Z" />
<glyph unicode="Y" glyph-name="Y" horiz-adv-x="1352" d="M677 135Q812 122 860 96Q852 28 831 -4Q723 4 566 4Q519 4 427 0T285 -4Q278 17 278 61Q278 74 280 96Q377 104 482 135Q500 195 509 260L540 504Q371 923 222 1243Q140 1267 66 1276Q62 1329 85 1376Q128
1376 203 1372T314 1368Q480 1368 564 1376Q583 1324 577 1276Q521 1252 420 1240Q509 1053 622 772L645 637Q841 961 1036 1240Q942 1266 860 1276Q859 1322 879 1376Q942 1376 1030 1372T1137 1368Q1269 1368 1333 1376Q1352 1322 1345 1276Q1289 1249 1195 1239Q940
870 718 504L693 305Q681 202 677 135Z" />
<glyph unicode="Z" glyph-name="Z" horiz-adv-x="1334" d="M1209 1376Q1250 1317 1254 1224Q1179 1139 1098 1048T914 839T714 609T512 370T320 136Q842 136 992 142Q1054 228 1098 348Q1146 355 1186 333Q1175 151 1118 -4Q868 4 608 4H446Q290 4 127 -4Q96 57
107 156Q222 313 494 635T924 1124L1066 1239H847Q548 1239 398 1233Q373 1175 337 1022Q289 1008 249 1026Q249 1231 275 1376Q525 1368 771 1368H953Q1073 1368 1209 1376Z" />
<glyph unicode="[" glyph-name="bracketleft" horiz-adv-x="715" d="M219 684L345 1745Q400 1745 562 1742T768 1739Q794 1737 794 1687T773 1609Q646 1589 491 1585Q471 1435 443 1226T397 889T370 684Q359 596 326 290T270 -213Q389 -216 533 -235Q559 -239
553 -290T517 -369Q478 -369 309 -371T84 -373L219 684Z" />
<glyph unicode="\" glyph-name="backslash" horiz-adv-x="806" d="M160 1368Q150 1410 208 1430T306 1436Q480 751 649 -139Q657 -182 601 -201T506 -207Q351 585 160 1368Z" />
<glyph unicode="]" glyph-name="bracketright" horiz-adv-x="715" d="M494 684Q453 365 369 -373Q316 -373 166 -371T-40 -369Q-64 -369 -72 -344T-77 -288T-61 -237Q70 -217 223 -213Q341 668 343 684Q354 774 388 1085T444 1585Q303 1589 174 1608Q146 1612
155 1662T198 1739Q237 1739 405 1742T630 1745L494 684Z" />
<glyph unicode="^" glyph-name="asciicircum" horiz-adv-x="1048" d="M124 834Q339 1089 533 1352Q546 1370 590 1370T641 1357Q828 998 924 838Q879 790 811 767L557 1141L212 770Q185 778 159 796T124 834Z" />
<glyph unicode="_" glyph-name="underscore" horiz-adv-x="1024" d="M-7 -248L7 -127H1031L1016 -248H-7Z" />
<glyph unicode="`" glyph-name="grave" horiz-adv-x="850" d="M653 1131Q663 1117 644 1096T598 1070Q469 1166 370 1276T247 1458Q237 1489 281 1526T377 1571Q458 1383 653 1131Z" />
<glyph unicode="a" glyph-name="a" horiz-adv-x="1039" d="M562 997Q640 997 726 976T861 924Q858 908 855 877T850 835Q786 353 765 145Q859 157 951 202Q985 176 988 135Q917 67 835 21T697 -25Q676 -25 659 -5T632 48T617 113T608 180Q510 84 418 27T265 -31Q212
-31 172 28T111 181T90 383Q90 475 111 564T174 732T272 869T403 963T562 997ZM662 674L680 826Q595 863 515 863Q465 863 417 845Q357 793 308 674T258 452Q258 218 324 126Q461 172 613 288L662 674Z" />
<glyph unicode="b" glyph-name="b" horiz-adv-x="990" d="M190 674Q208 817 243 1086T285 1406Q220 1415 108 1419Q101 1462 110 1493Q157 1521 221 1538T342 1556Q402 1556 428 1516T455 1414Q455 1387 452 1360Q447 1325 421 1148T379 849Q473 919 560 958T709
998Q763 998 802 965T861 876T891 758T900 628Q900 529 881 434T823 255T728 107T594 6T425 -31Q354 -31 258 -2T98 62Q158 419 190 674ZM659 858Q613 858 530 824T365 740Q333 501 281 154Q380 103 475 103Q522 103 572 121Q635 177 683 299T732 550Q732 785 659
858Z" />
<glyph unicode="c" glyph-name="c" horiz-adv-x="835" d="M807 916Q821 897 777 847T683 781Q642 812 588 833T483 854Q444 854 412 841Q346 785 297 684T248 456Q248 357 277 258T350 116Q494 134 701 221Q732 194 732 141Q651 81 514 24T294 -34Q234 -34 184
38T107 209T80 403Q80 537 120 650T230 837T389 953T579 995Q747 995 807 916Z" />
<glyph unicode="d" glyph-name="d" horiz-adv-x="1074" d="M880 835Q816 353 795 145Q889 157 981 202Q1015 176 1018 135Q947 67 865 21T727 -25Q704 -25 686 -2T659 59T644 131T637 201Q532 97 432 33T268 -31Q214 -31 173 28T111 181T90 383Q90 490 123 597T217
792T369 936T569 991Q646 991 730 970L787 1406Q722 1415 610 1419Q603 1462 612 1493Q659 1521 723 1538T844 1556Q904 1556 930 1516T957 1414Q957 1387 954 1360Q950 1327 923 1145T880 835ZM692 674L709 810Q612 857 520 857Q470 857 420 839Q358 787 308 671T258
452Q258 217 325 126Q476 175 646 307L692 674Z" />
<glyph unicode="e" glyph-name="e" horiz-adv-x="901" d="M349 124Q557 157 763 261Q800 234 800 186Q676 98 532 36T287 -27Q235 -27 186 38T109 201T80 394Q80 530 123 646T237 837T397 955T582 998Q691 998 757 912T824 703Q824 649 770 597T625 502T444 429T254
373Q277 189 349 124ZM248 482V461Q486 552 646 669Q646 751 612 808T525 865T417 843Q347 797 298 684T248 482Z" />
<glyph unicode="f" glyph-name="f" horiz-adv-x="723" d="M118 972H297Q311 1075 333 1204Q364 1379 468 1468T731 1557Q899 1557 959 1476Q973 1457 929 1405T835 1337Q794 1369 740 1390T634 1412Q596 1412 564 1399Q536 1379 514 1302T483 1156T460 972Q539
971 691 963Q691 918 680 881T652 844L444 840V835Q286 -443 283 -471Q280 -496 215 -510T101 -518Q138 -300 167 -84T226 381T261 674Q270 759 279 837L78 834Q78 972 118 972Z" />
<glyph unicode="g" glyph-name="g" horiz-adv-x="968" d="M722 -170Q709 -238 673 -304T584 -424T460 -511T312 -544Q201 -544 121 -519T3 -453Q-13 -436 -13 -409Q-13 -371 13 -329T69 -267Q180 -398 332 -398Q380 -398 431 -384T505 -351Q570 -139 613 178Q513
83 420 26T267 -31Q213 -31 172 28T110 181T89 383Q89 470 109 557T171 724T269 864T403 961T568 997Q647 997 734 976T870 924Q867 908 864 877T859 835Q830 584 799 340T722 -170ZM324 126Q469 173 628 294Q632 328 647 469T671 674L689 825Q602 863 519 863Q469
863 419 845Q357 793 307 674T257 452Q257 217 324 126Z" />
<glyph unicode="h" glyph-name="h" horiz-adv-x="1105" d="M377 835L374 814Q479 899 579 948T749 998Q832 998 879 938T927 781Q927 663 822 144Q915 158 1016 201Q1047 174 1051 127Q1011 79 916 27T749 -25Q648 -25 648 89Q648 108 652 136Q687 317 721 504T755
740Q755 841 710 858Q660 859 554 811T359 700Q288 140 274 40Q271 13 203 -2T85 -9Q138 274 189 674Q207 817 242 1086T284 1406Q219 1415 107 1419Q100 1462 109 1493Q156 1521 220 1538T341 1556Q401 1556 427 1516T454 1414Q454 1387 451 1360Q447 1327 420
1145T377 835Z" />
<glyph unicode="i" glyph-name="i" horiz-adv-x="620" d="M245 1281Q245 1334 276 1365T360 1396Q406 1396 440 1361T475 1281Q475 1167 360 1167Q313 1167 279 1201T245 1281ZM411 835Q343 317 325 145Q418 158 511 202Q545 176 548 135Q492 74 406 25T255 -25Q154
-25 154 102Q154 146 166 233Q179 325 223 674Q227 704 232 758T240 833Q185 842 64 848Q60 868 60 883Q60 902 66 922Q105 946 165 965T280 984Q340 984 376 956T413 864Q413 855 411 835Z" />
<glyph unicode="j" glyph-name="j" horiz-adv-x="545" d="M219 674Q223 704 228 758T236 833Q181 842 60 848Q56 868 56 883Q56 902 62 922Q125 953 177 968T295 984Q409 984 409 864Q409 855 407 835Q402 797 382 596T336 189T284 -164Q258 -310 157 -423T-72
-536Q-147 -536 -217 -493Q-243 -474 -230 -428T-194 -372Q-146 -391 -92 -391Q6 -391 62 -338Q109 -203 136 -43T187 362T219 674ZM242 1281Q242 1334 273 1365T357 1396Q403 1396 437 1361T472 1281Q472 1167 357 1167Q310 1167 276 1201T242 1281Z" />
<glyph unicode="k" glyph-name="k" horiz-adv-x="1011" d="M377 835Q370 784 357 683T338 533Q427 592 485 639T597 743T680 864T721 1004Q779 1004 834 973T890 901Q889 808 781 710T475 498L755 145Q841 157 936 195Q967 171 971 128Q906 64 832 22T693 -20Q660
-20 636 0T581 61Q545 108 463 235T327 442Q300 229 274 40Q271 13 203 -2T85 -9Q138 274 189 674Q207 817 242 1086T284 1406Q219 1415 107 1419Q100 1462 109 1493Q156 1521 220 1538T341 1556Q401 1556 427 1516T454 1414Q454 1387 451 1360Q447 1327 420 1145T377
835Z" />
<glyph unicode="l" glyph-name="l" horiz-adv-x="575" d="M194 674Q212 817 247 1086T289 1406Q224 1415 112 1419Q105 1462 114 1493Q161 1521 225 1538T346 1556Q406 1556 432 1516T459 1414Q459 1387 456 1360Q452 1327 425 1145T382 835Q314 317 296 145Q389
158 482 202Q516 176 519 135Q463 74 377 25T226 -25Q125 -25 125 102Q125 146 137 233Q150 325 194 674Z" />
<glyph unicode="m" glyph-name="m" horiz-adv-x="1645" d="M406 824Q625 1008 751 1008Q827 1008 873 953T928 810Q1158 1008 1289 1008Q1372 1008 1419 943T1467 781Q1467 663 1362 144Q1455 158 1556 201Q1587 174 1591 127Q1551 79 1456 27T1289 -25Q1188 -25
1188 89Q1188 108 1192 136Q1227 317 1261 504T1295 740Q1295 841 1250 858Q1201 857 1104 811T922 702Q912 617 876 363T830 40Q826 13 761 -1T647 -9Q684 198 720 442T757 740Q757 841 712 858Q664 857 570 813T391 708Q322 163 305 40Q302 13 234 -2T116 -9Q169
274 220 674Q224 704 229 758T237 833Q182 842 61 848Q53 885 63 922Q102 946 162 965T277 984Q337 984 373 956T410 864Q410 852 406 824Z" />
<glyph unicode="n" glyph-name="n" horiz-adv-x="1136" d="M405 814Q510 899 610 948T780 998Q863 998 910 938T958 781Q958 664 853 145Q946 159 1047 202Q1078 175 1082 128Q1053 85 954 30T780 -25Q679 -25 679 90Q679 109 683 137Q718 317 752 504T786 740Q786
841 741 858Q691 858 584 810T390 700Q319 140 305 40Q302 13 234 -2T116 -9Q169 274 220 674Q224 704 229 758T237 833Q182 842 61 848Q53 885 63 922Q102 946 162 965T277 984Q337 984 373 956T410 864Q410 853 405 814Z" />
<glyph unicode="o" glyph-name="o" horiz-adv-x="967" d="M450 101Q518 101 588 141Q638 193 678 289T719 481Q719 865 524 865Q447 865 379 825Q328 773 288 680T248 485Q248 294 295 198T450 101ZM364 -31Q300 -31 249 -4T167 66T116 166T88 279T80 391Q80 566
145 704T328 919T596 997Q678 997 738 957T829 851T873 717T887 576Q887 401 821 263T636 47T364 -31Z" />
<glyph unicode="p" glyph-name="p" horiz-adv-x="1043" d="M410 864Q410 848 407 827Q508 907 603 952T765 998Q819 998 857 965T916 875T944 758T953 628Q953 529 935 435T877 258T783 113T650 15T481 -21Q408 -21 302 12Q269 -249 243 -471Q240 -496 175 -510T60
-518Q97 -300 126 -84T185 381T220 674Q224 704 229 758T237 833Q182 842 61 848Q53 885 63 922Q102 946 162 965T277 984Q337 984 373 956T410 864ZM724 858Q672 859 575 819T394 721L323 173Q432 113 536 113Q587 113 635 131Q700 187 747 304T795 550Q795 676
779 748T724 858Z" />
<glyph unicode="q" glyph-name="q" horiz-adv-x="968" d="M859 835Q843 702 783 236T694 -471Q691 -496 626 -510T511 -518Q562 -211 611 176Q511 81 419 25T267 -31Q213 -31 172 28T110 181T89 383Q89 470 109 557T171 724T269 864T403 961T568 997Q648 997 737
975T869 922Q867 908 864 879T859 835ZM671 674L689 825Q603 863 519 863Q469 863 419 845Q357 793 307 674T257 452Q257 217 324 126Q472 175 625 292Q658 577 671 674Z" />
<glyph unicode="r" glyph-name="r" horiz-adv-x="857" d="M399 766Q585 1002 702 1002Q751 1002 788 955T831 862Q834 837 791 794T704 739Q697 746 672 772T628 815T598 838Q487 760 381 624Q377 591 349 371T305 40Q302 13 234 -2T116 -9Q169 274 220 674Q224
704 229 758T237 833Q182 842 61 848Q53 885 63 922Q102 946 162 965T277 984Q337 984 373 956T410 864Q410 853 399 766Z" />
<glyph unicode="s" glyph-name="s" horiz-adv-x="780" d="M90 18Q50 40 50 86Q50 118 68 154T111 212Q180 158 239 135T367 112Q424 112 468 139Q495 178 495 242Q495 271 484 298T445 355T398 402T337 454Q291 493 268 513T213 570T166 640T152 713Q152 821 253
909T480 997Q577 997 651 970T726 905Q726 864 706 826T648 765Q605 805 552 829T449 854Q390 854 346 838Q320 802 320 756Q320 731 334 706T370 658T422 610T483 560Q537 514 571 479T634 386T663 266Q663 221 641 171T577 76T466 0T314 -30Q234 -30 186 -19T90
18Z" />
<glyph unicode="t" glyph-name="t" horiz-adv-x="740" d="M427 839Q404 685 376 449Q351 236 351 140Q403 150 477 178T604 236Q641 203 641 159Q605 107 490 41T289 -26Q178 -26 178 101Q178 225 208 444L258 836Q146 836 75 834Q72 972 115 972H275Q296 1139
309 1232Q312 1259 380 1274T498 1281Q469 1126 446 972Q530 971 688 963Q688 918 677 881T649 844L427 839Z" />
<glyph unicode="u" glyph-name="u" horiz-adv-x="1116" d="M224 674Q241 757 241 833Q186 842 65 848Q57 885 67 922Q191 984 290 984Q414 984 414 864Q414 855 412 835Q398 739 375 593T338 356T324 233Q324 132 369 115Q414 115 508 155T685 250Q690 288 739
674Q744 721 752 808T765 928Q768 955 834 970T948 977Q941 940 927 835Q863 353 842 145Q936 157 1028 202Q1062 176 1065 135Q994 67 912 21T774 -25Q709 -25 689 146Q588 66 492 21T330 -25Q247 -25 200 35T152 192Q152 305 224 674Z" />
<glyph unicode="v" glyph-name="v" horiz-adv-x="1031" d="M270 991Q301 991 330 964T380 893Q423 802 450 658T477 362Q477 317 469 186Q620 349 691 508T762 871Q762 931 756 994Q901 994 916 927Q930 868 930 812Q930 458 482 21Q471 10 436 1T371 -9Q330 -9
330 7Q330 315 308 487T210 826Q125 818 56 802Q25 822 25 867Q65 917 144 954T270 991Z" />
<glyph unicode="w" glyph-name="w" horiz-adv-x="1517" d="M956 271L951 184Q1103 348 1175 508T1248 871Q1248 931 1242 994Q1387 994 1402 927Q1416 868 1416 812Q1416 458 968 21Q957 10 922 1T857 -9Q839 -9 827 -5T816 7Q821 60 821 139Q821 288 797 458Q673
208 482 21Q471 10 436 1T371 -9Q330 -9 330 7Q330 315 308 487T210 826Q125 818 56 802Q25 822 25 867Q65 917 144 954T270 991Q301 991 330 964T380 893Q423 801 449 652T476 346Q476 314 469 186Q566 280 647 396T767 628Q721 846 657 977Q733 1000 793 989T871
951Q916 882 916 762Q916 718 910 675Q952 443 956 271Z" />
<glyph unicode="x" glyph-name="x" horiz-adv-x="1042" d="M753 145Q848 155 935 174Q966 154 966 109Q920 59 827 20T686 -20Q655 -20 628 6T582 78L468 366Q380 200 277 84T96 -33Q65 -33 43 13T20 110Q250 218 424 478Q337 693 267 822Q172 813 103 797Q72
817 72 862Q119 912 205 949T339 987Q370 987 397 961T443 889L554 613Q724 911 905 1004Q912 1008 920 1008Q948 1008 977 958T1012 861Q893 808 793 722T597 506Q691 274 753 145Z" />
<glyph unicode="y" glyph-name="y" horiz-adv-x="1041" d="M332 -47Q336 14 336 89Q336 516 211 826Q126 818 57 802Q26 822 26 867Q66 917 145 954T271 991Q302 991 331 962T381 884Q424 784 450 622T476 289Q476 255 469 115Q620 292 691 466T762 860Q762 925
756 994Q901 994 916 927Q930 868 930 812Q930 622 817 418T487 -42Q373 -176 315 -290T218 -555Q160 -555 116 -530T71 -469Q71 -405 150 -281T332 -47Z" />
<glyph unicode="z" glyph-name="z" horiz-adv-x="921" d="M811 150Q828 146 829 124T822 76T795 25T758 -12Q547 12 398 12Q272 12 116 -5Q103 -5 82 30T52 107T57 179Q121 286 240 415T474 644T705 834Q618 843 525 843Q328 843 162 795Q135 787 120 810T105
873Q105 926 127 955Q251 984 375 984Q661 984 796 948Q824 941 839 873T831 786Q733 704 661 640T499 488T334 308T203 121Q398 164 654 164Q750 164 811 150Z" />
<glyph unicode="{" glyph-name="braceleft" horiz-adv-x="819" d="M99 625Q82 634 79 674T92 724Q180 767 232 799T344 879Q357 911 369 1118T386 1364Q396 1446 438 1514T545 1632T688 1714T856 1768Q882 1774 895 1739T899 1670Q816 1636 736 1593T617 1514Q603
1496 580 1418T551 1292L501 893Q493 835 429 790T245 695Q454 609 454 511Q454 474 427 274T399 12Q399 -84 410 -139Q441 -178 510 -223T646 -296Q672 -308 652 -348T596 -401Q426 -362 321 -271T216 -40Q216 2 256 210T289 472Q252 521 209 554T99 625Z" />
<glyph unicode="|" glyph-name="bar" horiz-adv-x="912" d="M250 -549L511 1573H662L401 -549H250Z" />
<glyph unicode="}" glyph-name="braceright" horiz-adv-x="829" d="M721 727Q737 717 723 676T690 624Q636 595 602 577T535 534T466 471Q454 453 440 247T423 11Q411 -97 341 -183T174 -320T-46 -398Q-72 -404 -85 -369T-89 -300Q119 -216 192 -139Q206 -121
229 -43T259 83Q305 465 307 485Q315 555 385 608T569 695Q473 734 416 780T359 874Q359 905 384 1102T410 1363Q410 1452 399 1507Q368 1546 299 1591T163 1664Q137 1676 157 1716T213 1769Q380 1731 486 1640T593 1415Q593 1370 554 1159T514 884Q564 815 721
727Z" />
<glyph unicode="~" glyph-name="asciitilde" horiz-adv-x="1040" d="M115 429Q95 419 75 449T57 510Q134 576 220 628T355 680Q409 680 466 663T565 624T659 583T756 559Q816 564 921 613Q943 623 960 586T969 520Q916 474 838 436T705 398Q621 398 493 450T311
508Q257 502 115 429Z" />
</font>
</defs>
</svg>
